<?xml version="1.0" encoding="iso-8859-1"?>
<!-- Uploaded to: SVG Repo, www.svgrepo.com, Generator: SVG Repo Mixer Tools -->
<svg height="800px" width="800px" version="1.1" id="Layer_1" xmlns="http://www.w3.org/2000/svg" xmlns:xlink="http://www.w3.org/1999/xlink" 
	 viewBox="0 0 511.999 511.999" xml:space="preserve">
<path style="fill:#0069A3;" d="M435.177,196.528c-0.467,0-0.928,0.025-1.393,0.035c0.45-3.69,0.687-7.445,0.687-11.257
	c0-50.762-41.151-91.913-91.913-91.913c-31.99,0-60.158,16.346-76.62,41.138c-13.31-6.382-28.223-9.958-43.971-9.958
	c-56.244,0-101.839,45.595-101.839,101.839s45.595,101.839,101.839,101.839h213.209c36.375,0,65.862-29.487,65.862-65.862
	S471.552,196.528,435.177,196.528z"/>
<path style="opacity:0.1;enable-background:new    ;" d="M450.258,313.171H237.049c-56.244,0-101.839-45.595-101.839-101.839
	c0-24.281,8.502-46.573,22.686-64.072c-23.037,18.67-37.767,47.19-37.767,79.153c0,56.244,45.595,101.839,101.839,101.839h213.209
	c22.037,0,41.532-10.834,53.488-27.455C477.851,308.575,464.595,313.171,450.258,313.171z"/>
<path style="opacity:0.1;enable-background:new    ;" d="M308.463,161.436c-3.976-16.87-13.065-32.797-25.662-45.954
	c-6.458,5.533-12.144,11.942-16.862,19.049c-0.457-0.22,24.537,12.728,36.718,29.74
	C304.727,167.162,309.279,164.896,308.463,161.436z"/>
<path style="fill:#F5DF5D;" d="M377.874,388.198c-107.911,0.868-196.836-86.584-197.689-194.495
	c-0.624-78.792,45.231-146.938,111.785-178.674c6.792-3.238,5.084-13.383-2.413-14.041c-8.151-0.715-16.412-1.049-24.765-0.979
	C123.937,1.182,9.893,117.14,10.968,257.995c1.073,140.466,115.274,254.004,255.993,254.004
	c103.792,0,193.141-61.774,233.325-150.557c3.1-6.85-4.814-13.453-10.953-9.112C457.788,374.637,419.37,387.865,377.874,388.198z"/>
<path style="opacity:0.1;enable-background:new    ;" d="M283.74,495.221c-140.719,0-254.92-113.538-255.993-254.004
	c-0.511-66.951,24.998-128.264,67.02-174.311c-51.912,47.348-84.375,115.641-83.799,191.09
	c1.073,140.466,115.274,254.004,255.993,254.004c74.937,0,142.34-32.205,189.152-83.523
	C410.627,469.937,350.139,495.221,283.74,495.221z"/>
<g style="opacity:0.05;">
	<path d="M76.099,341.846c-16.814,0-32.138,6.373-43.694,16.833c17.775,40.545,45.743,75.603,80.677,101.919
		c17.006-11.753,28.155-31.377,28.155-53.613C141.237,371.009,112.074,341.846,76.099,341.846z"/>
	<circle cx="110.268" cy="248.802" r="20.023"/>
	<path d="M384.134,388.036c-2.612,0.104-5.232,0.169-7.869,0.169c-35.334,0-68.482-9.351-97.114-25.705
		c-4.352,7.957-6.83,17.087-6.83,26.795c0,30.885,25.037,55.922,55.922,55.922s55.922-25.037,55.922-55.922
		C384.166,388.873,384.144,388.455,384.134,388.036z"/>
	<path d="M112.47,51.871C89.702,69.129,69.911,90.105,54.001,113.9c7.491,6.516,17.271,10.469,27.979,10.469
		c23.563,0,42.667-19.102,42.667-42.667C124.646,70.089,120,59.564,112.47,51.871z"/>
</g>
</svg>