<?xml version="1.0" encoding="iso-8859-1"?>
<!-- Uploaded to: SVG Repo, www.svgrepo.com, Generator: SVG Repo Mixer Tools -->
<svg height="800px" width="800px" version="1.1" id="Layer_1" xmlns="http://www.w3.org/2000/svg" xmlns:xlink="http://www.w3.org/1999/xlink" 
	 viewBox="0 0 511.984 511.984" xml:space="preserve">
<path style="fill:#646C77;" d="M511.984,255.992c0,141.37-114.621,255.992-255.992,255.992C114.606,511.984,0,397.362,0,255.992
	C0,114.606,114.606,0,255.992,0C397.363,0,511.984,114.606,511.984,255.992z"/>
<path style="fill:#FECD57;" d="M319.991,255.992c0-64.873,28.967-122.98,74.653-162.104c-37.28-31.937-85.715-51.233-138.652-51.233
	c-117.824,0-213.337,95.513-213.337,213.337c0,117.809,95.513,213.32,213.337,213.32c52.937,0,101.372-19.295,138.652-51.216
	C348.958,378.972,319.991,320.865,319.991,255.992z"/>
<path style="fill:#F5BA45;" d="M85.326,255.992c0-110.605,84.169-201.541,191.963-212.275c-7.016-0.688-14.109-1.063-21.297-1.063
	C138.168,42.655,42.655,138.168,42.655,255.992c0,117.809,95.513,213.32,213.337,213.32c7.188,0,14.281-0.359,21.297-1.063
	C169.495,457.532,85.326,366.597,85.326,255.992z"/>
</svg>